<svg fill="white" height="512pt" viewBox="-40 0 512 512" width="512pt" xmlns="http://www.w3.org/2000/svg"><g fill-rule="evenodd"><path d="m309.660156 116.859375-32.132812 32.132813c-5.859375 5.859374-5.859375 15.355468 0 21.214843 5.855468 5.855469 15.355468 5.855469 21.210937 0l6.527344-6.527343v11.984374c0 36.027344-29.308594 65.335938-65.332031 65.335938-36.027344 0-65.335938-29.308594-65.335938-65.335938 0-36.023437 29.308594-65.332031 65.335938-65.332031 8.28125 0 15-6.714843 15-15 0-8.28125-6.71875-15-15-15-52.566406 0-95.335938 42.765625-95.335938 95.332031 0 52.570313 42.769532 95.335938 95.335938 95.335938s95.332031-42.765625 95.332031-95.332031v-11.988281l6.527344 6.527343c5.855469 5.855469 15.351562 5.859375 21.214843 0 5.855469-5.859375 5.855469-15.355469 0-21.214843l-32.136718-32.132813c-5.835938-5.835937-15.335938-5.875-21.210938 0zm0 0"/><path d="m431.664062 209.632812c0-191.261718-167.960937-209.632812-196.40625-209.632812-108.625 0-179.023437 94.339844-179.023437 167.898438v26.722656c-8.914063 11.457031-34.382813 44.203125-46.503906 59.789062-6.273438 8.066406-9.730469 18.136719-9.730469 28.355469 0 19.183594 11.507812 36.1875 29.328125 43.324219l13.988281 5.59375 22.660156 63.445312c11.234376 31.464844 41.234376 52.605469 74.648438 52.605469h23.328125l13.226563 52.90625c1.671874 6.675781 7.671874 11.359375 14.554687 11.359375h192.796875c4.707031 0 9.144531-2.210938 11.976562-5.96875 2.835938-3.753906 3.742188-8.625 2.449219-13.152344l-30.636719-107.230468 49.746094-111.933594c9.023438-20.308594 13.597656-41.867188 13.597656-64.082032zm-41.011718 51.898438-51.960938 116.910156c-1.425781 3.214844-1.679687 6.828125-.714844 10.210938l26.671876 93.347656h-161.203126l-13.226562-52.90625c-1.667969-6.675781-7.667969-11.359375-14.550781-11.359375h-35.042969c-20.769531 0-39.414062-13.140625-46.398438-32.695313l-24.933593-69.816406c-1.445313-4.050781-4.5625-7.289062-8.558594-8.882812l-20.261719-8.105469c-10.390625-4.160156-13.640625-16.953125-7.0625-25.402344 12.648438-16.269531 39.820313-51.203125 47.570313-61.167969 3.386719-4.359374 5.253906-9.796874 5.253906-15.3125v-28.453124c0-40.292969 42.6875-137.898438 149.039063-137.898438 23.5625 0 166.390624 14.332031 166.390624 179.632812 0 17.992188-3.703124 35.453126-11.011718 51.898438zm0 0"/></g></svg>